<svg width="210" height="86" viewBox="0 0 210 86" fill="none" xmlns="http://www.w3.org/2000/svg">
<rect width="210" height="86" rx="24" fill="white"/>
<path d="M45.76 26.352C48.416 26.352 50.832 26.768 53.008 27.6C55.216 28.4 57.104 29.552 58.672 31.056C60.272 32.528 61.504 34.288 62.368 36.336C63.232 38.384 63.664 40.656 63.664 43.152C63.664 45.68 63.216 47.968 62.32 50.016C61.456 52.064 60.224 53.84 58.624 55.344C57.024 56.848 55.104 58 52.864 58.8C50.624 59.6 48.144 60 45.424 60H31.264V26.352H45.76ZM46 52.992C47.28 52.992 48.448 52.768 49.504 52.32C50.56 51.84 51.472 51.168 52.24 50.304C53.04 49.44 53.648 48.416 54.064 47.232C54.48 46.016 54.688 44.688 54.688 43.248C54.688 41.776 54.464 40.448 54.016 39.264C53.568 38.048 52.928 37.008 52.096 36.144C51.296 35.248 50.336 34.576 49.216 34.128C48.128 33.648 46.912 33.408 45.568 33.408H40.048V52.992H46Z" fill="black"/>
<path d="M113.448 34.764H120.036V54.456H130.728V60H113.448V34.764Z" fill="#4F46E5"/>
<path d="M143.285 52.512C143.269 51.92 143.141 51.416 142.901 51C142.677 50.568 142.349 50.232 141.917 49.992C141.485 49.752 140.989 49.632 140.429 49.632C139.805 49.632 139.261 49.792 138.797 50.112C138.333 50.432 137.973 50.872 137.717 51.432C137.461 51.992 137.333 52.64 137.333 53.376C137.333 54.208 137.477 54.92 137.765 55.512C138.053 56.104 138.461 56.56 138.989 56.88C139.517 57.2 140.125 57.36 140.813 57.36C142.061 57.36 143.149 56.896 144.077 55.968L146.021 57.888C145.381 58.608 144.589 59.16 143.645 59.544C142.717 59.928 141.669 60.12 140.501 60.12C139.125 60.12 137.933 59.848 136.925 59.304C135.917 58.76 135.133 58 134.573 57.024C134.029 56.032 133.757 54.888 133.757 53.592C133.757 52.264 134.037 51.112 134.597 50.136C135.157 49.144 135.933 48.376 136.925 47.832C137.933 47.288 139.093 47.008 140.405 46.992C141.925 46.992 143.165 47.312 144.125 47.952C145.101 48.576 145.805 49.464 146.237 50.616C146.685 51.752 146.853 53.104 146.741 54.672H136.805V52.512H143.285ZM156.141 54.408C155.437 54.408 154.909 54.528 154.557 54.768C154.205 55.008 154.029 55.392 154.029 55.92C154.029 56.432 154.205 56.84 154.557 57.144C154.925 57.432 155.421 57.576 156.045 57.576C156.589 57.576 157.069 57.488 157.485 57.312C157.917 57.12 158.269 56.872 158.541 56.568C158.829 56.248 159.005 55.88 159.069 55.464L159.621 57.528C159.253 58.392 158.677 59.048 157.893 59.496C157.109 59.944 156.149 60.168 155.013 60.168C154.101 60.168 153.309 59.992 152.637 59.64C151.981 59.288 151.469 58.808 151.101 58.2C150.749 57.592 150.573 56.904 150.573 56.136C150.573 54.936 150.997 53.992 151.845 53.304C152.693 52.616 153.909 52.264 155.493 52.248H159.429V54.408H156.141ZM159.045 52.008C159.045 51.304 158.813 50.752 158.349 50.352C157.901 49.952 157.237 49.752 156.357 49.752C155.781 49.752 155.165 49.856 154.509 50.064C153.853 50.256 153.189 50.536 152.517 50.904L151.365 48.504C152.005 48.168 152.629 47.888 153.237 47.664C153.845 47.44 154.469 47.272 155.109 47.16C155.749 47.032 156.445 46.968 157.197 46.968C158.941 46.968 160.285 47.376 161.229 48.192C162.173 49.008 162.653 50.136 162.669 51.576L162.693 60H159.069L159.045 52.008ZM176.246 50.304C175.382 50.224 174.622 50.328 173.966 50.616C173.326 50.904 172.83 51.32 172.478 51.864C172.142 52.408 171.974 53.056 171.974 53.808L171.038 53.64C171.038 52.232 171.246 51.032 171.662 50.04C172.094 49.048 172.702 48.288 173.486 47.76C174.27 47.232 175.19 46.968 176.246 46.968V50.304ZM168.278 47.112H171.974V60H168.278V47.112ZM189.855 52.944C189.855 52.096 189.623 51.432 189.159 50.952C188.711 50.472 188.095 50.232 187.311 50.232C186.399 50.248 185.679 50.576 185.151 51.216C184.623 51.856 184.359 52.664 184.359 53.64H183.423C183.423 52.136 183.639 50.896 184.071 49.92C184.519 48.928 185.143 48.192 185.943 47.712C186.759 47.216 187.719 46.968 188.823 46.968C189.783 46.968 190.615 47.176 191.319 47.592C192.039 47.992 192.591 48.56 192.975 49.296C193.359 50.032 193.551 50.904 193.551 51.912V60H189.855V52.944ZM180.663 47.112H184.359V60H180.663V47.112Z" fill="black"/>
<rect x="31" y="33" width="9" height="20" fill="#4F46E5"/>
<rect x="41.5" y="26.3496" width="7" height="28" transform="rotate(90 41.5 26.3496)" fill="black"/>
<rect x="36" y="53" width="7" height="14" transform="rotate(90 36 53)" fill="black"/>
<path d="M26 44.4996L10 27.5928" stroke="black" stroke-width="7"/>
<path d="M26 15.9995L10 32.9062" stroke="black" stroke-width="7"/>
<path d="M75.2 51.512C75.184 50.92 75.056 50.416 74.816 50C74.592 49.568 74.264 49.232 73.832 48.992C73.4 48.752 72.904 48.632 72.344 48.632C71.72 48.632 71.176 48.792 70.712 49.112C70.248 49.432 69.888 49.872 69.632 50.432C69.376 50.992 69.248 51.64 69.248 52.376C69.248 53.208 69.392 53.92 69.68 54.512C69.968 55.104 70.376 55.56 70.904 55.88C71.432 56.2 72.04 56.36 72.728 56.36C73.976 56.36 75.064 55.896 75.992 54.968L77.936 56.888C77.296 57.608 76.504 58.16 75.56 58.544C74.632 58.928 73.584 59.12 72.416 59.12C71.04 59.12 69.848 58.848 68.84 58.304C67.832 57.76 67.048 57 66.488 56.024C65.944 55.032 65.672 53.888 65.672 52.592C65.672 51.264 65.952 50.112 66.512 49.136C67.072 48.144 67.848 47.376 68.84 46.832C69.848 46.288 71.008 46.008 72.32 45.992C73.84 45.992 75.08 46.312 76.04 46.952C77.016 47.576 77.72 48.464 78.152 49.616C78.6 50.752 78.768 52.104 78.656 53.672H68.72V51.512H75.2ZM73.04 40.664L76.304 41.936L73.04 44.528L70.352 44.288L73.04 40.664ZM81.2403 60.704C81.4163 60.752 81.5923 60.792 81.7683 60.824C81.9283 60.872 82.0963 60.904 82.2723 60.92C83.2803 60.952 83.7843 60.312 83.7843 59V46.112H87.4563V59.528C87.4563 60.872 87.0643 61.92 86.2803 62.672C85.5123 63.44 84.4483 63.816 83.0883 63.8C82.1123 63.768 81.2403 63.6 80.4723 63.296L81.2403 60.704ZM85.5843 40.424C86.1763 40.424 86.6563 40.616 87.0243 41C87.4083 41.384 87.6003 41.864 87.6003 42.44C87.6003 43.016 87.4083 43.496 87.0243 43.88C86.6563 44.264 86.1763 44.456 85.5843 44.456C85.0243 44.456 84.5523 44.264 84.1683 43.88C83.7843 43.496 83.5923 43.016 83.5923 42.44C83.5923 41.864 83.7843 41.384 84.1683 41C84.5523 40.616 85.0243 40.424 85.5843 40.424ZM98.0848 53.408C97.3808 53.408 96.8528 53.528 96.5008 53.768C96.1488 54.008 95.9728 54.392 95.9728 54.92C95.9728 55.432 96.1488 55.84 96.5008 56.144C96.8688 56.432 97.3648 56.576 97.9888 56.576C98.5328 56.576 99.0128 56.488 99.4288 56.312C99.8608 56.12 100.213 55.872 100.485 55.568C100.773 55.248 100.949 54.88 101.013 54.464L101.565 56.528C101.197 57.392 100.621 58.048 99.8368 58.496C99.0528 58.944 98.0928 59.168 96.9568 59.168C96.0448 59.168 95.2528 58.992 94.5808 58.64C93.9248 58.288 93.4128 57.808 93.0448 57.2C92.6928 56.592 92.5168 55.904 92.5168 55.136C92.5168 53.936 92.9408 52.992 93.7888 52.304C94.6368 51.616 95.8528 51.264 97.4368 51.248H101.373V53.408H98.0848ZM100.989 51.008C100.989 50.304 100.757 49.752 100.293 49.352C99.8448 48.952 99.1808 48.752 98.3008 48.752C97.7248 48.752 97.1088 48.856 96.4528 49.064C95.7968 49.256 95.1328 49.536 94.4608 49.904L93.3088 47.504C93.9488 47.168 94.5728 46.888 95.1808 46.664C95.7888 46.44 96.4128 46.272 97.0528 46.16C97.6928 46.032 98.3888 45.968 99.1408 45.968C100.885 45.968 102.229 46.376 103.173 47.192C104.117 48.008 104.597 49.136 104.613 50.576L104.637 59H101.013L100.989 51.008ZM98.0368 40.664L100.533 44.288L97.8448 44.528L94.7728 41.936L98.0368 40.664Z" fill="black"/>
</svg>
