<svg width="89" height="86" viewBox="0 0 89 86" fill="none" xmlns="http://www.w3.org/2000/svg">
<rect width="86" height="86" rx="24" fill="white"/>
<path d="M40.76 26.352C43.416 26.352 45.832 26.768 48.008 27.6C50.216 28.4 52.104 29.552 53.672 31.056C55.272 32.528 56.504 34.288 57.368 36.336C58.232 38.384 58.664 40.656 58.664 43.152C58.664 45.68 58.216 47.968 57.32 50.016C56.456 52.064 55.224 53.84 53.624 55.344C52.024 56.848 50.104 58 47.864 58.8C45.624 59.6 43.144 60 40.424 60H26.264V26.352H40.76ZM41 52.992C42.28 52.992 43.448 52.768 44.504 52.32C45.56 51.84 46.472 51.168 47.24 50.304C48.04 49.44 48.648 48.416 49.064 47.232C49.48 46.016 49.688 44.688 49.688 43.248C49.688 41.776 49.464 40.448 49.016 39.264C48.568 38.048 47.928 37.008 47.096 36.144C46.296 35.248 45.336 34.576 44.216 34.128C43.128 33.648 41.912 33.408 40.568 33.408H35.048V52.992H41Z" fill="black"/>
<path d="M63.448 34.764H70.036V54.456H80.728V60H63.448V34.764Z" fill="#4F46E5"/>
<rect x="26" y="33" width="9" height="20" fill="#4F46E5"/>
<rect x="36.5" y="26.3496" width="7" height="28" transform="rotate(90 36.5 26.3496)" fill="black"/>
<rect x="31" y="53" width="7" height="14" transform="rotate(90 31 53)" fill="black"/>
<path d="M21 44.4996L5 27.5928" stroke="black" stroke-width="7"/>
<path d="M21 15.9995L5 32.9062" stroke="black" stroke-width="7"/>
</svg>
